<?xml version="1.0" standalone="no"?>
<!DOCTYPE svg PUBLIC "-//W3C//DTD SVG 20010904//EN"
 "http://www.w3.org/TR/2001/REC-SVG-20010904/DTD/svg10.dtd">
<svg version="1.0" xmlns="http://www.w3.org/2000/svg"
 width="300.000000pt" height="51.000000pt" viewBox="0 0 300.000000 51.000000"
 preserveAspectRatio="xMidYMid meet">
<metadata>
Created by potrace 1.10, written by Peter Selinger 2001-2011
</metadata>
<g transform="translate(0.000000,51.000000) scale(0.100000,-0.100000)"
fill="#000000" stroke="none">
<path d="M1663 500 c-31 -13 -40 -55 -18 -80 43 -47 118 -4 96 54 -6 14 -15
26 -20 26 -5 0 -15 2 -23 4 -7 3 -23 1 -35 -4z"/>
<path d="M203 407 c-12 -6 -47 -43 -78 -80 -64 -76 -66 -60 23 -163 30 -36 63
-64 77 -66 14 -3 25 -3 25 -1 0 8 -40 56 -92 110 l-49 53 63 70 c79 89 88 109
31 77z"/>
<path d="M10 255 c0 -148 1 -155 20 -155 19 0 20 7 20 155 0 148 -1 155 -20
155 -19 0 -20 -7 -20 -155z"/>
<path d="M383 323 c-17 -49 -42 -118 -56 -155 l-26 -68 23 0 c19 0 26 7 33 37
l9 38 70 3 71 3 11 -39 c9 -30 18 -41 38 -45 16 -3 24 0 21 7 -2 6 -28 77 -58
158 -50 137 -56 148 -79 148 -23 0 -29 -9 -57 -87z m84 -26 c12 -39 23 -74 23
-77 0 -3 -24 -4 -53 -2 l-53 4 26 78 c14 43 27 76 29 74 3 -2 15 -37 28 -77z"/>
<path d="M640 255 c0 -150 1 -155 21 -155 20 0 20 4 17 146 -2 100 0 140 7
129 6 -10 50 -75 98 -146 62 -92 93 -129 107 -129 19 0 20 8 20 155 0 150 -1
155 -21 155 -20 0 -21 -4 -17 -125 3 -118 -2 -148 -16 -107 -4 9 -39 65 -79
124 -67 99 -74 107 -104 108 l-33 0 0 -155z"/>
<path d="M1000 255 l0 -156 92 3 c62 2 93 7 96 16 3 9 -16 12 -72 12 l-76 0 0
58 0 58 60 -4 c56 -4 60 -3 60 17 0 19 -6 21 -60 21 l-60 0 0 50 0 50 69 0
c52 0 70 4 75 15 4 13 -9 15 -89 15 l-95 0 0 -155z"/>
<path d="M1930 255 l0 -155 25 0 c23 0 24 2 22 71 l-2 70 83 2 82 2 0 -72 c0
-69 1 -73 23 -73 22 0 22 1 22 155 0 154 0 155 -22 155 -22 0 -23 -4 -23 -65
l0 -65 -86 0 -87 0 7 65 c7 65 6 65 -19 65 l-25 0 0 -155z"/>
<path d="M2352 383 c-29 -73 -102 -275 -102 -283 0 -4 9 -6 20 -3 12 3 24 20
32 45 l11 39 70 -3 c70 -3 70 -3 82 -37 11 -33 55 -64 55 -38 0 7 -25 77 -54
157 -48 128 -57 145 -79 148 -19 2 -27 -3 -35 -25z m88 -168 c0 0 -25 0 -55 0
-30 0 -55 3 -55 6 0 4 24 81 47 149 2 8 18 -23 34 -70 16 -47 29 -85 29 -85z"/>
<path d="M2588 255 l3 -155 84 0 c69 0 85 3 85 15 0 12 -14 15 -65 15 l-65 0
0 140 c0 139 0 140 -22 140 -23 0 -23 0 -20 -155z"/>
<path d="M2820 255 l0 -155 85 0 c69 0 85 3 85 15 0 12 -14 15 -63 15 l-62 0
3 140 4 140 -26 0 -26 0 0 -155z"/>
<path d="M1360 395 c0 -3 17 -35 37 -70 l37 -65 95 0 c100 0 109 4 131 58 11
25 45 30 54 6 8 -22 7 -137 -2 -150 -9 -15 -84 -22 -89 -9 -2 6 6 15 18 20 31
15 53 57 45 89 -9 37 -26 32 -26 -8 0 -36 -11 -50 -47 -59 -18 -4 -23 -1 -23
13 0 17 -11 19 -137 22 -76 2 -140 1 -143 -2 -3 -3 -4 -58 -2 -122 3 -109 5
-118 23 -118 18 0 19 8 19 103 l0 102 100 0 c55 0 100 -1 100 -2 0 -1 -28 -39
-62 -84 -49 -64 -59 -85 -51 -98 17 -27 36 -18 75 38 l38 54 0 -56 c0 -50 2
-57 20 -57 18 0 20 7 20 70 0 56 3 70 15 70 12 0 15 -14 15 -70 0 -56 3 -70
15 -70 12 0 15 14 15 63 l0 62 53 -1 52 -2 0 -58 c0 -46 4 -59 16 -62 14 -2
17 14 22 110 4 62 10 139 13 171 6 47 4 57 -8 57 -18 0 -28 -41 -28 -117 0
-46 -3 -55 -22 -62 -28 -11 -39 -3 -15 10 14 8 17 24 17 92 0 94 -7 107 -60
107 -27 0 -43 -8 -65 -30 -23 -24 -37 -30 -71 -30 -25 0 -49 -6 -58 -15 -28
-28 -50 -17 -81 42 -27 49 -55 79 -55 58z m221 -244 c-10 -18 -31 -29 -31 -16
0 18 25 54 33 46 5 -5 4 -17 -2 -30z"/>
</g>
</svg>
