<?xml version="1.0" standalone="no"?>
<!DOCTYPE svg PUBLIC "-//W3C//DTD SVG 20010904//EN"
 "http://www.w3.org/TR/2001/REC-SVG-20010904/DTD/svg10.dtd">
<svg version="1.0" xmlns="http://www.w3.org/2000/svg"
 width="300.000000pt" height="241.000000pt" viewBox="0 0 300.000000 241.000000"
 preserveAspectRatio="xMidYMid meet">
<metadata>
Created by potrace 1.10, written by Peter Selinger 2001-2011
</metadata>
<g transform="translate(0.000000,241.000000) scale(0.100000,-0.100000)"
fill="#000000" stroke="none">
<path d="M1454 2401 c-45 -11 -75 -35 -209 -170 l-120 -121 -190 0 c-164 0
-196 -3 -230 -19 -102 -47 -127 -118 -124 -359 l2 -163 -125 -127 c-138 -140
-162 -175 -161 -242 0 -71 34 -124 166 -254 l120 -119 -2 -156 c-3 -233 23
-305 124 -352 34 -16 66 -19 223 -19 l184 0 100 -105 c164 -172 226 -206 333
-183 46 10 62 22 191 149 l140 139 190 0 c209 0 242 8 295 66 46 50 52 85 56
288 l2 190 124 125 c137 139 161 174 160 241 0 70 -35 124 -163 252 l-118 117
-4 183 c-5 195 -13 234 -57 282 -52 58 -87 66 -289 66 l-183 0 -104 109 c-157
163 -234 205 -331 182z m131 -49 c16 -8 82 -66 145 -128 l115 -114 -82 0 c-67
0 -83 -3 -83 -15 0 -12 17 -15 94 -15 l94 0 256 -257 256 -257 0 -355 0 -356
-72 -72 c-57 -57 -70 -75 -60 -85 10 -10 25 0 73 47 l60 60 -3 -175 c-4 -203
-12 -232 -81 -271 -39 -22 -55 -24 -217 -27 l-175 -4 48 49 c26 27 47 54 47
61 0 25 -28 10 -85 -48 l-59 -60 -93 0 c-76 0 -93 -3 -93 -15 0 -12 15 -15 79
-15 l79 0 -115 -113 c-136 -133 -161 -150 -217 -150 -62 0 -100 25 -226 149
l-115 114 77 0 c73 0 102 10 77 26 -6 4 -48 6 -93 5 l-81 -2 -258 257 -257
258 0 355 0 355 67 68 c53 53 65 70 55 80 -10 10 -24 1 -68 -42 l-55 -55 3
175 c4 205 13 237 82 272 36 19 61 22 216 26 l175 4 -54 -56 c-46 -47 -52 -56
-37 -62 13 -5 34 10 80 55 l63 62 74 -1 c100 -2 101 -2 97 13 -3 7 -31 14 -74
17 l-69 5 127 122 c153 148 190 163 283 115z m711 -300 c65 -33 78 -71 82
-232 6 -233 32 -236 -233 31 l-230 231 170 -4 c150 -4 175 -7 211 -26z m353
-769 c25 -50 26 -97 3 -140 -14 -27 -228 -253 -238 -253 -2 0 -4 147 -4 328
l0 327 109 -110 c60 -61 118 -129 130 -152z m-2059 -90 l0 -328 -109 110
c-146 149 -175 209 -135 288 16 31 221 253 237 256 4 0 7 -146 7 -326z m468
-862 c-13 -2 -88 -1 -168 1 -130 3 -149 6 -187 28 -69 38 -77 67 -81 265 l-3
170 231 -230 c195 -195 227 -231 208 -234z"/>
<path d="M955 1770 l0 -40 67 0 68 0 0 -525 0 -525 -68 0 -67 0 0 -40 0 -40
206 0 206 0 0 40 0 40 -66 0 -67 0 -1 176 -1 176 87 94 c71 78 88 92 96 78 72
-114 308 -476 325 -496 l22 -28 -66 0 -66 0 0 -40 0 -40 208 0 207 0 0 40 0
40 -60 0 -60 1 -140 217 c-76 119 -170 264 -207 321 l-68 104 32 36 c17 20
101 111 186 204 l155 167 59 0 58 0 0 40 0 40 -189 0 -190 0 1 -40 0 -40 77 0
c74 0 75 -1 55 -18 -26 -20 -353 -377 -444 -483 -35 -41 -66 -75 -69 -77 -3
-1 -6 128 -6 288 l0 290 66 0 66 0 0 40 0 40 -206 0 -206 0 0 -40z m333 -4 c3
-3 -6 -6 -21 -6 -14 0 -36 -10 -47 -22 -20 -22 -21 -31 -18 -299 3 -253 5
-277 22 -294 15 -15 22 -16 37 -7 28 18 23 2 -11 -40 -46 -55 -50 -77 -50
-246 1 -174 5 -189 62 -202 21 -5 -14 -8 -97 -8 -71 1 -119 3 -105 5 14 3 33
14 42 26 16 20 18 64 18 533 0 500 0 511 -20 532 -12 12 -31 23 -43 23 -14 1
-9 4 13 9 39 7 209 4 218 -4z m600 -5 c-18 -6 -121 -105 -202 -193 -27 -29
-72 -78 -100 -108 -80 -87 -93 -104 -100 -126 -6 -20 3 -35 209 -354 23 -36
75 -117 115 -180 41 -63 86 -125 100 -137 l25 -23 -104 0 -104 0 21 23 c12 13
22 28 22 34 0 13 -35 74 -98 170 -26 40 -85 131 -131 203 -47 71 -95 140 -108
152 -23 21 -24 21 -59 4 l-37 -17 41 49 c23 27 72 80 109 119 37 39 93 99 123
133 30 34 77 85 103 113 64 69 74 94 47 122 -11 12 -18 23 -16 26 2 2 40 2 83
0 43 -2 70 -6 61 -10z"/>
</g>
</svg>
